. 
 
http://www.torrenting.com          :     Once & For all ;)


               www . Torrenting . Com 

(((((((((((((= Enjoy No RAR releases =))))))))))))))))))))


...................................NFO:....................................

.                                                                                                     
       
     
     
       
       
     
     
                                         
                                         
                EXVID                    
                                         
         
                                         
         Filled the Archives             
                                         
         
                                         
                With:                    
                                         
         
                                         
                                    
     E240                           
                                    
     SP               (C) 2009      
                                         
     
     
     
                                                                                  
                                                                                   
        The.Three.Musketeers.2011.iNTERNAL.DVDRip.XviD-EXViDiNT                     
                                                                                   
                                                                                  
     
                                                                                               
EXViD aims to iNTERNAL those releases which have been lost in the archives.
EXViD aims to PRE non-internal releases which have poor sources and are likely skipped by others. 
http://www.imdb.com/title/tt1509767/
Subtitles: NL, FR
Date: 2012.02

Director: Paul W.S. Anderson

Genres: Action | Adventure | Romance

Plot:
The hot-headed young D'Artagnan along with three former legendary but now down on their luck
Musketeers must unite and defeat a beautiful double agent and her villainous employer from
seizing the French throne and engulfing Europe in war.

Cast:
Matthew Macfadyen 	 ... 	Athos 
Milla Jovovich 	 ... 	Milady de Winter 
Luke Evans 	 ... 	Aramis 
Helen George 	 ... 	 Blonde 
Christian Oliver 	 ... 	 Venetian Nobleman 
Ray Stevenson 	 ... 	Porthos 
Til Schweiger 	 ... 	Cagliostro 
Markus Brandl 	 ... 	 Sergeant Venetian Guard 
Orlando Bloom 	 ... 	Duke of Buckingham 
Logan Lerman 	 ... 	D'Artagnan 
Dexter Fletcher 	 ... 	D'Artagnan's Father 
Jane Perry 	 ... 	D'Artagnan's Mother 
Mads Mikkelsen 	 ... 	Rochefort 
Andy Gathergood 	 ... 	 Drunk 
Ben Moor 	 ... 	 Tailor

Stats:
Format                           : AVI
Format/Info                      : Audio Video Interleave
File size                        : 1.37 GiB
Duration                         : 1h 45mn
Overall bit rate                 : 1 850 Kbps
Writing application              : VirtualDubMod 1.5.10.2 (build 2540/release)
Writing library                  : VirtualDubMod build 2540/release

Video
ID                               : 0
Format                           : MPEG-4 Visual
Format profile                   : Advanced Simple@L5
Format settings, BVOP            : Yes
Format settings, QPel            : No
Format settings, GMC             : No warppoints
Format settings, Matrix          : Default (H.263)
Muxing mode                      : Packed bitstream
Codec ID                         : XVID
Codec ID/Hint                    : XviD
Duration                         : 1h 45mn
Bit rate                         : 1 392 Kbps
Width                            : 640 pixels
Height                           : 272 pixels
Display aspect ratio             : 2.35:1
Frame rate                       : 25.000 fps
Color space                      : YUV
Chroma subsampling               : 4:2:0
Bit depth                        : 8 bits
Scan type                        : Progressive
Bits/(Pixel*Frame)               : 0.320
Stream size                      : 1.03 GiB (75%)
Writing library                  : XviD 62

Audio
ID                               : 1
Format                           : AC-3
Format/Info                      : Audio Coding 3
Mode extension                   : CM (complete main)
Codec ID                         : 2000
Duration                         : 1h 45mn
Bit rate mode                    : Constant
Bit rate                         : 448 Kbps
Channel(s)                       : 6 channels
Channel positions                : Front: L C R, Side: L R, LFE
Sampling rate                    : 48.0 KHz
Bit depth                        : 16 bits
Stream size                      : 339 MiB (24%)
Alignment                        : Split accross interleaves
Interleave, duration             : 40 ms (1.00 video frame)
Interleave, preload duration     : 500 ms




Release notes:

Shitfix? Syncfix? Hell no!

enjoy!

Looking for:
75TB+ Archives
DUTCH/FLEMiSH Archives
                                                                                                    
Greets: CRBS EPiSODE FiCO FLS iLS KLASSiGER LiPSYNC MADE NODLABS RUNNER SPRiNTER      
   

                                                                    ASCII DONE BY XX^NFO 2oo9